HIERARCHY
ROOT Hips
{
	OFFSET 40.341400 0.324488 83.936897
	CHANNELS 6 Xposition Yposition Zposition Xrotation Yrotation Zrotation
	JOINT spine
	{
		OFFSET 0.000000 -0.359108 6.244797
		CHANNELS 3 Xrotation Yrotation Zrotation
		JOINT spine1
		{
			OFFSET 0.000000 -0.000001 9.069412
			CHANNELS 3 Xrotation Yrotation Zrotation
			JOINT spine2
			{
				OFFSET 0.000000 -0.000001 8.690140
				CHANNELS 3 Xrotation Yrotation Zrotation
				JOINT Neck
				{
					OFFSET 0.000000 -1.063724 22.311195
					CHANNELS 3 Xrotation Yrotation Zrotation
					JOINT Head
					{
						OFFSET 0.000000 -0.000001 6.740814
						CHANNELS 3 Xrotation Yrotation Zrotation
						End Site
						{
							OFFSET 0.000000 5.380968 16.316498
						}
					}
				}
				JOINT RightShoulder
				{
					OFFSET -3.659161 0.509512 9.384682
					CHANNELS 3 Xrotation Yrotation Zrotation
					JOINT RightArm
					{
						OFFSET 0.000000 -0.000002 12.308899
						CHANNELS 3 Xrotation Yrotation Zrotation
						JOINT RightArmRoll
						{
							OFFSET 0.000000 -0.000001 6.213745
							CHANNELS 3 Xrotation Yrotation Zrotation
							JOINT RightForeArm
							{
								OFFSET 0.000000 -0.000003 18.098495
								CHANNELS 3 Xrotation Yrotation Zrotation
								JOINT RightForeArmRoll
								{
									OFFSET 0.000000 -0.000001 6.972794
									CHANNELS 3 Xrotation Yrotation Zrotation
									JOINT RightHand
									{
										OFFSET 0.000000 -0.000002 13.992905
										CHANNELS 3 Xrotation Yrotation Zrotation
										End Site
										{
											OFFSET 0.000000 -0.000000 0.100006
										}
									}
								}
							}
						}
					}
				}
				JOINT LeftShoulder
				{
					OFFSET 3.659161 0.509512 9.384682
					CHANNELS 3 Xrotation Yrotation Zrotation
					JOINT LeftArm
					{
						OFFSET 0.000000 -0.000002 12.308899
						CHANNELS 3 Xrotation Yrotation Zrotation
						JOINT LeftArmRoll
						{
							OFFSET 0.000000 -0.000001 6.213745
							CHANNELS 3 Xrotation Yrotation Zrotation
							JOINT LeftForeArm
							{
								OFFSET 0.000000 -0.000003 18.098495
								CHANNELS 3 Xrotation Yrotation Zrotation
								JOINT LeftForeArmRoll
								{
									OFFSET 0.000000 -0.000001 6.972794
									CHANNELS 3 Xrotation Yrotation Zrotation
									JOINT LeftHand
									{
										OFFSET 0.000000 -0.000002 13.992905
										CHANNELS 3 Xrotation Yrotation Zrotation
										End Site
										{
											OFFSET 0.000000 -0.000000 0.100006
										}
									}
								}
							}
						}
					}
				}
			}
		}
	}
	JOINT RightUpLeg
	{
		OFFSET -5.535160 0.851454 -1.014999
		CHANNELS 3 Xrotation Yrotation Zrotation
		JOINT RightUpLegRoll
		{
			OFFSET 0.000000 -0.000003 16.407501
			CHANNELS 3 Xrotation Yrotation Zrotation
			JOINT RightLeg
			{
				OFFSET 0.000000 0.000003 -20.318100
				CHANNELS 3 Xrotation Yrotation Zrotation
				JOINT RightLegRoll
				{
					OFFSET 0.000000 -0.000003 20.384598
					CHANNELS 3 Xrotation Yrotation Zrotation
					JOINT RightFoot
					{
						OFFSET 0.000000 -0.000003 16.966805
						CHANNELS 3 Xrotation Yrotation Zrotation
						JOINT RightToeBase
						{
							OFFSET 0.000000 -0.000002 14.183395
							CHANNELS 3 Xrotation Yrotation Zrotation
							End Site
							{
								OFFSET 0.006012 0.791745 6.868896
							}
						}
					}
				}
			}
		}
	}
	JOINT LeftUpLeg
	{
		OFFSET 5.535160 0.851454 -1.014999
		CHANNELS 3 Xrotation Yrotation Zrotation
		JOINT LeftUpLegRoll
		{
			OFFSET 0.000000 -0.000003 16.407600
			CHANNELS 3 Xrotation Yrotation Zrotation
			JOINT LeftLeg
			{
				OFFSET 0.000000 -0.000003 20.318100
				CHANNELS 3 Xrotation Yrotation Zrotation
				JOINT LeftLegRoll
				{
					OFFSET 0.000000 -0.000003 20.573105
					CHANNELS 3 Xrotation Yrotation Zrotation
					JOINT LeftFoot
					{
						OFFSET 0.000000 -0.000003 16.778305
						CHANNELS 3 Xrotation Yrotation Zrotation
						JOINT LeftToeBase
						{
							OFFSET 0.000000 -0.000002 14.183395
							CHANNELS 3 Xrotation Yrotation Zrotation
							End Site
							{
								OFFSET -0.026943 0.791744 6.868896
							}
						}
					}
				}
			}
		}
	}
}
MOTION
Frames: 11
Frame Time: 0.041667
40.266998 -0.078567 83.934303 1.404598 -0.171033 -0.088930 -2.661500 0.032785 -0.026449 -1.320181 0.068437 -0.051763 0.324894 0.067881 -0.052508 18.840061 -1.402860 -0.457320 4.762835 0.645327 -0.476056 -13.917012 -40.809561 -15.786191 57.107027 -41.110827 90.578369 -0.000006 0.000002 -0.000012 2.984132 2.400482 -1.176961 -0.000012 -0.000013 -3.000004 -5.000162 -7.999941 0.000021 -15.514963 38.028222 17.836387 57.899356 39.537045 -89.253866 -0.000000 0.000002 0.000002 2.072977 -5.164107 0.672343 -0.000003 0.000001 2.999988 -5.000184 7.999968 -0.000007 -8.126844 178.721954 -0.903353 -179.999991 0.000005 -1.148997 165.537216 -2.127436 -0.985580 -0.000003 -0.000004 0.507783 73.407021 7.651917 -0.392958 25.456957 -7.355616 0.000011 -0.716038 -179.107067 -0.356331 -0.000005 0.000011 -1.143090 -10.234370 1.587438 0.857659 0.000003 0.000001 -0.326358 74.783878 -7.184553 -0.789989 26.251202 7.355624 -0.106141 
40.262402 -0.074405 83.931297 1.403566 -0.171562 -0.089848 -2.661833 0.033788 -0.025067 -1.320851 0.070573 -0.048969 0.324227 0.070070 -0.049734 18.843233 -1.411039 -0.461731 4.741487 0.642157 -0.479569 -13.893587 -40.839620 -15.756377 57.037363 -41.119078 90.525353 -0.000003 0.000003 -0.000012 2.970190 2.400475 -1.176978 -0.000012 -0.000014 -2.999998 -5.000161 -7.999940 0.000021 -15.502926 38.018438 17.819957 57.908755 39.550074 -89.258292 -0.000000 -0.000001 -0.000004 2.073592 -5.161389 0.672342 -0.000003 -0.000002 2.999988 -5.000184 7.999970 -0.000005 -8.123410 178.720970 -0.904089 -179.999991 0.000005 -1.148997 165.540317 -2.126500 -0.985216 -0.000004 -0.000003 0.507836 73.407199 7.652079 -0.392846 25.456962 -7.355615 0.000010 -0.716067 -179.107067 -0.356783 -0.000005 0.000011 -1.143080 -10.235872 1.587538 0.857727 0.000002 0.000001 -0.326372 74.782136 -7.184395 -0.790480 26.253828 7.355619 -0.106125 
40.261200 -0.076230 83.932602 1.402509 -0.171997 -0.090719 -2.662060 0.034652 -0.023837 -1.321311 0.072395 -0.046481 0.323768 0.071937 -0.047264 18.843696 -1.418995 -0.465891 4.722347 0.640472 -0.483026 -13.874092 -40.866214 -15.731543 56.977076 -41.125252 90.479694 -0.000004 0.000006 -0.000013 2.958009 2.400561 -1.176989 -0.000011 -0.000009 -3.000000 -5.000164 -7.999938 0.000021 -15.492616 38.009508 17.805762 57.918529 39.562276 -89.264138 0.000000 -0.000000 0.000001 2.074329 -5.159666 0.672348 -0.000003 0.000001 2.999994 -5.000183 7.999967 -0.000003 -8.120327 178.719959 -0.904685 -179.999991 0.000005 -1.148997 165.542926 -2.125558 -0.985867 -0.000003 -0.000003 0.507890 73.407485 7.652225 -0.392744 25.456959 -7.355616 0.000010 -0.716064 -179.107067 -0.357143 -0.000005 0.000011 -1.143070 -10.237471 1.587501 0.857793 0.000003 0.000001 -0.326387 74.780756 -7.184263 -0.790952 26.256050 7.355615 -0.106117 
40.261299 -0.080771 83.931992 1.401457 -0.172319 -0.091536 -2.662170 0.035343 -0.022796 -1.321521 0.073829 -0.044376 0.323556 0.073406 -0.045173 18.840862 -1.426553 -0.469740 4.705949 0.640516 -0.486391 -13.859175 -40.888555 -15.712671 56.928209 -41.128933 90.442865 -0.000004 0.000005 -0.000009 2.947992 2.400764 -1.176998 -0.000012 -0.000012 -3.000006 -5.000164 -7.999937 0.000021 -15.484150 38.001923 17.794195 57.928644 39.573030 -89.271194 -0.000001 0.000001 0.000001 2.075189 -5.159153 0.672353 -0.000002 -0.000001 2.999992 -5.000185 7.999967 -0.000002 -8.117728 178.719946 -0.905233 -179.999991 0.000005 -1.148997 165.544948 -2.124613 -0.985544 -0.000003 -0.000003 0.507945 73.407970 7.652320 -0.392763 25.456955 -7.355615 0.000011 -0.716039 -179.107067 -0.357395 -0.000005 0.000011 -1.143060 -10.239072 1.587325 0.857861 0.000003 0.000001 -0.326401 74.779787 -7.184101 -0.791592 26.257870 7.355619 -0.106115 
40.259499 -0.077768 83.931099 1.400417 -0.172509 -0.092292 -2.662130 0.035828 -0.021981 -1.321441 0.074802 -0.042729 0.323634 0.074402 -0.043537 18.834018 -1.433587 -0.473205 4.692836 0.642533 -0.489629 -13.849845 -40.905733 -15.700959 56.893085 -41.129746 90.416637 -0.000003 0.000003 -0.000012 2.940524 2.401099 -1.177001 -0.000012 -0.000014 -3.000002 -5.000162 -7.999939 0.000019 -15.478209 37.995874 17.785959 57.939129 39.582090 -89.279807 -0.000002 -0.000001 -0.000002 2.076155 -5.160032 0.672350 -0.000004 -0.000000 2.999994 -5.000183 7.999966 -0.000004 -8.115691 178.718962 -0.905438 -179.999991 0.000005 -1.148996 165.546150 -2.124624 -0.985499 -0.000002 -0.000004 0.507999 73.408571 7.652431 -0.392988 25.456955 -7.355617 0.000011 -0.715986 -179.107067 -0.357519 -0.000005 0.000011 -1.143050 -10.240870 1.586962 0.857929 0.000003 0.000001 -0.326416 74.779397 -7.183961 -0.791998 26.259084 7.355616 -0.106097 
40.258701 -0.079096 83.934494 1.399288 -0.172585 -0.092955 -2.661951 0.036136 -0.021350 -1.321061 0.075360 -0.041448 0.324011 0.074975 -0.042264 18.823877 -1.440432 -0.476419 4.682540 0.646426 -0.492840 -13.845531 -40.918810 -15.695754 56.869688 -41.127895 90.399712 -0.000005 0.000005 -0.000013 2.935092 2.401819 -1.177030 -0.000013 -0.000014 -3.000000 -5.000164 -7.999940 0.000020 -15.474147 37.990776 17.780389 57.950740 39.590051 -89.290633 -0.000001 -0.000001 -0.000001 2.077550 -5.162484 0.672355 -0.000005 0.000001 2.999990 -5.000183 7.999966 -0.000004 -8.114033 178.718948 -0.905505 -179.999991 0.000005 -1.148997 165.546860 -2.123665 -0.985224 -0.000003 -0.000003 0.508053 73.409398 7.652543 -0.393429 25.456955 -7.355617 0.000011 -0.715885 -179.107067 -0.357484 -0.000005 0.000011 -1.143040 -10.242769 1.586372 0.857995 0.000003 0.000001 -0.326430 74.779226 -7.183846 -0.792793 26.259893 7.355616 -0.106085 
40.264500 -0.081472 83.934090 1.397996 -0.172578 -0.093510 -2.661671 0.036324 -0.020829 -1.320431 0.075623 -0.040379 0.324643 0.075248 -0.041201 18.811434 -1.447544 -0.479553 4.674075 0.651837 -0.496137 -13.844839 -40.929355 -15.695227 56.853880 -41.124262 90.389357 -0.000004 0.000009 -0.000012 2.930860 2.403068 -1.177097 -0.000012 -0.000016 -3.000000 -5.000162 -7.999944 0.000023 -15.471661 37.985844 17.776817 57.964018 39.597578 -89.304040 -0.000000 0.000001 -0.000002 2.079631 -5.166405 0.672358 -0.000004 -0.000001 2.999986 -5.000185 7.999967 -0.000004 -8.112503 178.718948 -0.905289 -179.999991 0.000005 -1.148997 165.547052 -2.124632 -0.985466 -0.000003 -0.000003 0.508105 73.410532 7.652622 -0.393995 25.456955 -7.355615 0.000011 -0.715714 -179.107067 -0.357289 -0.000005 0.000011 -1.143030 -10.244865 1.585525 0.858061 0.000002 0.000001 -0.326444 74.779384 -7.183710 -0.793465 26.260394 7.355623 -0.106078 
40.263901 -0.082028 83.931198 1.396578 -0.172496 -0.093975 -2.661280 0.036406 -0.020407 -1.319581 0.075626 -0.039503 0.325496 0.075257 -0.040329 18.796991 -1.454873 -0.482613 4.667233 0.658629 -0.499502 -13.847406 -40.937610 -15.698891 56.844905 -41.118944 90.384610 -0.000006 0.000002 -0.000011 2.927751 2.404732 -1.177181 -0.000012 -0.000013 -3.000002 -5.000165 -7.999938 0.000023 -15.470249 37.981080 17.774794 57.978757 39.604797 -89.319804 -0.000001 -0.000001 -0.000003 2.082269 -5.171572 0.672352 -0.000005 0.000001 2.999988 -5.000183 7.999967 0.000000 -8.111099 178.718935 -0.904830 -179.999991 0.000005 -1.148997 165.546847 -2.124631 -0.985474 -0.000004 -0.000003 0.508156 73.411816 7.652773 -0.394662 25.456955 -7.355615 0.000010 -0.715481 -179.107067 -0.356955 -0.000005 0.000011 -1.143020 -10.247060 1.584471 0.858126 0.000003 0.000001 -0.326458 74.779780 -7.183595 -0.794224 26.260701 7.355613 -0.106081 
40.257500 -0.077397 83.930496 1.395026 -0.172347 -0.094366 -2.660822 0.036394 -0.020075 -1.318541 0.075403 -0.038800 0.326537 0.075037 -0.039629 18.780848 -1.462397 -0.485590 4.661799 0.666659 -0.502919 -13.852803 -40.944027 -15.706233 56.841838 -41.112135 90.384768 -0.000005 0.000004 -0.000011 2.925653 2.406694 -1.177280 -0.000013 -0.000013 -3.000002 -5.000162 -7.999940 0.000019 -15.470059 37.976641 17.774353 57.994720 39.611525 -89.337201 -0.000000 -0.000001 -0.000001 2.085364 -5.177789 0.672360 -0.000003 -0.000001 2.999986 -5.000187 7.999968 -0.000003 -8.109833 178.718935 -0.904179 -179.999991 0.000005 -1.149994 165.546341 -2.125591 -0.984744 -0.000004 -0.000004 0.508206 73.413318 7.652897 -0.395543 25.456957 -7.355616 0.000011 -0.715202 -179.107067 -0.356511 -0.000005 0.000011 -1.143010 -10.249455 1.583249 0.858193 0.000003 0.000001 -0.326472 74.780374 -7.183450 -0.795066 26.260699 7.355613 -0.106071 
40.259399 -0.071853 83.930794 1.393407 -0.172138 -0.094702 -2.660282 0.036302 -0.019820 -1.317341 0.074990 -0.038252 0.327732 0.074623 -0.039083 18.763208 -1.470078 -0.488489 4.657566 0.675786 -0.506375 -13.860656 -40.948750 -15.716709 56.844068 -41.104068 90.389166 -0.000004 0.000003 -0.000010 2.924517 2.408841 -1.177402 -0.000012 -0.000013 -3.000005 -5.000166 -7.999937 0.000024 -15.470790 37.972280 17.775117 58.011556 39.618079 -89.356189 0.000000 0.000001 0.000000 2.088761 -5.184831 0.672358 -0.000003 -0.000002 2.999987 -5.000184 7.999965 -0.000007 -8.108691 178.718935 -0.903374 -179.999991 0.000005 -1.149994 165.545631 -2.126550 -0.985019 -0.000003 -0.000003 0.508256 73.415019 7.652999 -0.396546 25.456957 -7.355616 0.000011 -0.714877 -179.107067 -0.355982 -0.000005 0.000011 -1.143000 -10.251949 1.581878 0.858257 0.000003 0.000001 -0.326487 74.781084 -7.183318 -0.796103 26.260496 7.355617 -0.106061 
40.257401 -0.073792 83.931389 1.391726 -0.171876 -0.095001 -2.659693 0.036141 -0.019633 -1.316031 0.074422 -0.037839 0.329047 0.074051 -0.038671 18.744368 -1.477876 -0.491308 4.654336 0.685869 -0.509851 -13.870324 -40.951946 -15.729622 56.850543 -41.094977 90.396830 -0.000005 0.000005 -0.000014 2.924231 2.411070 -1.177516 -0.000012 -0.000014 -3.000000 -5.000164 -7.999938 0.000019 -15.472229 37.968216 17.776891 58.029110 39.624185 -89.376215 0.000001 0.000001 0.000003 2.092362 -5.192494 0.672365 -0.000002 0.000001 2.999992 -5.000183 7.999967 -0.000005 -8.107683 178.718921 -0.902457 -179.999991 0.000005 -1.149994 165.544606 -2.128486 -0.985558 -0.000002 -0.000003 0.508306 73.416720 7.653100 -0.397447 25.456957 -7.355617 0.000011 -0.714519 -179.107067 -0.355395 -0.000005 0.000011 -1.142990 -10.254445 1.580419 0.858321 0.000004 0.000001 -0.326501 74.781931 -7.183219 -0.797036 26.260093 7.355614 -0.106056 
